<svg width="127" height="127" viewBox="0 0 127 127" fill="none" xmlns="http://www.w3.org/2000/svg">
<path d="M58.5641 11.0171H69.0448V21.4978H71.665C73.7497 21.4978 75.7491 22.3259 77.2232 23.8001C78.6974 25.2742 79.5255 27.2735 79.5255 29.3583V47.6995L77.2198 50.0052L85.8139 64.8878C91.6307 59.1758 95.2465 51.2629 95.2465 42.4591H105.727C105.727 55.1408 100.12 66.5123 91.2115 74.2156L107.666 102.723L108.347 114.357L98.5479 107.963L82.4601 80.0324C76.9053 82.8097 70.5121 84.3818 63.8045 84.3818C57.0969 84.3818 50.7036 82.8097 45.1489 80.0324L29.061 107.963L19.2616 114.357L19.9428 102.723L50.3892 50.0052L48.0835 47.6995V29.3583C48.0835 27.2735 48.9116 25.2742 50.3858 23.8001C51.8599 22.3259 53.8592 21.4978 55.944 21.4978H58.5641V11.0171ZM50.3892 70.9142C54.4767 72.8531 59.0358 73.9012 63.8045 73.9012C68.5732 73.9012 73.1323 72.8531 77.2198 70.9142L69.5689 57.6561H69.5165C66.2674 60.8003 61.3415 60.8003 58.0925 57.6561H58.0401L50.3892 70.9142ZM63.8045 31.9784C62.4147 31.9784 61.0818 32.5306 60.099 33.5133C59.1163 34.4961 58.5641 35.829 58.5641 37.2188C58.5641 38.6086 59.1163 39.9415 60.099 40.9243C61.0818 41.907 62.4147 42.4591 63.8045 42.4591C65.1943 42.4591 66.5272 41.907 67.51 40.9243C68.4927 39.9415 69.0448 38.6086 69.0448 37.2188C69.0448 35.829 68.4927 34.4961 67.51 33.5133C66.5272 32.5306 65.1943 31.9784 63.8045 31.9784Z" fill="#73B86D"/>
</svg>
