<svg width="639" height="476" viewBox="0 0 639 476" fill="none" xmlns="http://www.w3.org/2000/svg">
<g clip-path="url(#clip0)">
<path d="M460.645 448.739H71.3966V450.391H460.645V448.739Z" fill="#3F3D56"/>
<path d="M277.823 221.389C277.823 221.389 269.562 258.552 286.083 251.945C302.605 245.339 292.692 219.737 292.692 219.737L277.823 221.389Z" fill="#FFB9B9"/>
<path d="M432.3 233.777C432.3 233.777 452.126 257.727 439.735 262.682C427.343 267.637 420.735 240.384 422.387 237.906C424.039 235.428 432.3 233.777 432.3 233.777Z" fill="#FFB9B9"/>
<path d="M385.213 64.4744C398.9 64.4744 409.996 53.3819 409.996 39.6985C409.996 26.0152 398.9 14.9226 385.213 14.9226C371.526 14.9226 360.431 26.0152 360.431 39.6985C360.431 53.3819 371.526 64.4744 385.213 64.4744Z" fill="#FFB9B9"/>
<path d="M366.627 49.1963L363.322 74.7979L390.583 84.708L396.366 55.8028L366.627 49.1963Z" fill="#FFB9B9"/>
<path d="M381.909 74.3848C381.909 74.3848 367.905 67.4731 364.994 61.8445L358.779 67.7779C358.779 67.7779 314.17 63.6486 307.561 85.9469C300.953 108.245 306.735 189.18 306.735 189.18C306.735 189.18 297.648 225.518 300.127 226.344C302.605 227.169 333.17 242.035 376.126 233.776C376.126 233.776 395.126 230.473 398.431 232.951C401.735 235.428 396.778 193.309 396.778 193.309C396.778 193.309 429.822 118.981 424.039 109.897C418.257 100.812 392.648 81.8176 392.648 81.8176L394.3 72.7331C394.3 72.7331 382.735 77.6883 381.909 74.3848Z" fill="#3B87CA"/>
<path d="M314.17 80.166C314.17 80.166 299.301 87.5988 296.822 99.1609C294.344 110.723 271.214 206.523 273.692 212.304C276.17 218.085 275.344 225.518 275.344 225.518L296.822 223.04C296.822 223.04 292.692 217.259 295.17 214.782C297.648 212.304 300.127 204.046 298.475 200.742C296.822 197.439 295.17 203.22 304.257 192.483C313.344 181.747 333.996 83.4695 314.17 80.166Z" fill="#3B87CA"/>
<path d="M419.083 108.245C419.083 108.245 426.104 108.658 427.757 120.22C429.409 131.782 432.3 203.22 432.3 203.22C432.3 203.22 443.039 226.344 438.909 229.647C434.778 232.951 437.256 237.906 437.256 237.906L422.387 242.035L390.17 191.658L419.083 108.245Z" fill="#3B87CA"/>
<path d="M302.605 223.04C302.605 223.04 297.648 223.866 297.648 242.035C297.648 260.204 288.562 316.363 294.344 325.447C300.127 334.532 300.953 416.292 300.953 416.292C300.953 416.292 316.648 422.899 329.866 401.427L331.518 389.865L334.822 333.706L348.04 263.508L366.213 341.139C366.213 341.139 363.735 434.461 372.822 434.461C381.909 434.461 399.257 427.029 399.257 427.029C399.257 427.029 403.387 418.77 401.735 414.641C400.083 410.511 398.431 411.337 400.083 408.034C401.735 404.73 404.213 318.84 404.213 318.84C404.213 318.84 400.909 230.473 396.778 227.995C392.648 225.518 302.605 223.04 302.605 223.04Z" fill="#2F2E41"/>
<path d="M302.605 412.989L289.388 427.028C289.388 427.028 265.431 449.327 286.083 450.153C306.735 450.978 318.301 436.939 318.301 435.287C318.301 433.635 319.127 427.854 324.909 427.854C330.692 427.854 344.735 413.815 341.431 408.034C338.127 402.252 328.214 399.775 328.214 399.775L302.605 412.989Z" fill="#2F2E41"/>
<path d="M373.648 431.158C373.648 431.158 363.735 450.979 369.518 455.108C375.3 459.237 376.952 460.889 376.952 460.889C376.952 460.889 381.909 460.063 381.083 467.496C380.257 474.929 410.822 479.058 412.474 473.277C414.126 467.496 413.3 455.934 409.996 452.63C406.691 449.327 396.778 426.203 396.778 426.203C396.778 426.203 386.039 413.815 373.648 431.158Z" fill="#2F2E41"/>
<path d="M410.225 19.8042L414.893 19.1413C414.893 19.1413 408.394 7.18242 395.815 5.01092L400.231 2.03152C400.231 2.03152 392.558 -3.45038 382.642 3.59592C377.429 7.29999 371.377 11.6723 366.925 17.1756L362.371 16.0629L363.249 20.7113L355.573 23.2699L362.585 24.1867C361.618 26.3785 360.984 28.7024 360.703 31.0814C360.432 33.4634 361.096 35.8577 362.557 37.7592C362.557 37.7592 370.498 28.1343 370.914 26.4323L369.874 30.6873C369.874 30.6873 375.063 27.8968 375.687 25.3439L377.278 28.8891L379.582 24.492L392.742 32.6672L391.358 28.271L399.938 31.7199L397.602 26.1893C397.602 26.1893 406.301 34.1766 405.544 38.9515C404.786 43.7264 406.644 48.8802 406.644 48.8802C406.644 48.8802 419.875 28.9258 410.225 19.8042Z" fill="#2F2E41"/>
<path d="M639 300.515H506.709V302.097H639V300.515Z" fill="#3F3D56"/>
<path d="M144.508 422.454H112.62V454.334H144.508V422.454Z" fill="#CFCCE0"/>
<path d="M140.312 450.139H106.745V416.582H140.312V450.139ZM108.424 448.461H138.634V418.259H108.424L108.424 448.461Z" fill="#3F3D56"/>
<path d="M179.396 143.896L159.216 151.699L166.75 171.176L186.931 163.373L179.396 143.896Z" fill="#F2F2F2"/>
<path d="M183.284 161.837L162.042 170.05L154.11 149.549L175.353 141.335L183.284 161.837ZM162.707 168.615L181.826 161.223L174.688 142.771L155.569 150.163L162.707 168.615Z" fill="#3F3D56"/>
<path d="M550.218 381.331L543.183 360.875L523.43 367.664L530.464 388.121L550.218 381.331Z" fill="#F2F2F2"/>
<path d="M532.138 384.536L524.733 363.003L545.526 355.856L552.931 377.389L532.138 384.536ZM526.143 363.722L532.807 383.102L551.521 376.67L544.856 357.29L526.143 363.722Z" fill="#3F3D56"/>
<path d="M100.331 279.642C112.163 279.895 121.575 288.467 121.575 288.467C121.575 288.467 111.804 296.628 99.9724 296.374C88.1406 296.12 78.7286 287.548 78.7286 287.548C78.7286 287.548 88.4997 279.388 100.331 279.642Z" fill="#3B87CA"/>
<path d="M40.8477 239.264C51.5371 244.341 63.7945 240.899 63.7945 240.899C63.7945 240.899 58.7208 229.224 48.0314 224.147C37.342 219.07 25.0846 222.513 25.0846 222.513C25.0846 222.513 30.1582 234.187 40.8477 239.264Z" fill="#3B87CA"/>
<path d="M41.9343 234.219C53.7196 233.143 64.0352 240.603 64.0352 240.603C64.0352 240.603 55.2432 249.809 43.4578 250.886C31.6725 251.963 21.3569 244.502 21.3569 244.502C21.3569 244.502 30.149 235.296 41.9343 234.219Z" fill="#3F3D56"/>
<path d="M85.1355 236.259C84.0059 248.037 91.4223 258.383 91.4223 258.383C91.4223 258.383 100.67 249.634 101.8 237.857C102.929 226.08 95.513 215.733 95.513 215.733C95.513 215.733 86.2651 224.482 85.1355 236.259Z" fill="#3F3D56"/>
<path d="M140.639 308.489C134.457 318.578 136.584 331.128 136.584 331.128C136.584 331.128 148.733 327.32 154.914 317.231C161.096 307.142 158.969 294.592 158.969 294.592C158.969 294.592 146.82 298.4 140.639 308.489Z" fill="#3F3D56"/>
<path d="M122.705 418.183L123.606 417.574C120.431 412.967 118.697 407.521 118.625 401.927C118.65 393.744 122.671 386.175 126.559 378.856C127.281 377.497 128 376.143 128.692 374.789C131.597 369.271 133.911 363.461 135.598 357.457C141.629 335.051 135.691 308.616 119.715 286.743C107.04 269.391 88.1472 254.218 61.9558 240.357L61.4473 241.317C87.4895 255.1 106.262 270.169 118.837 287.384C134.621 308.993 140.494 335.084 134.548 357.175C132.881 363.105 130.594 368.843 127.724 374.295C127.034 375.643 126.318 376.992 125.599 378.346C121.649 385.782 117.564 393.472 117.538 401.924C117.61 407.736 119.409 413.395 122.705 418.183Z" fill="#3F3D56"/>
<path d="M10.3285 241.785C16.0326 241.785 20.6567 237.162 20.6567 231.459C20.6567 225.757 16.0326 221.134 10.3285 221.134C4.62435 221.134 0.000244141 225.757 0.000244141 231.459C0.000244141 237.162 4.62435 241.785 10.3285 241.785Z" fill="#3F3D56"/>
<path d="M572.591 292.45L439.646 244.714L463.38 178.647L546.159 158.352L596.326 226.384L572.591 292.45Z" fill="#2F2E41"/>
<path d="M556.486 279.35L457.135 241.488C482.927 206.95 494.46 182.587 494.469 144.249L593.819 182.111C570.738 214.889 561.086 239.529 556.486 279.35Z" fill="#F2F2F2"/>
<path d="M564.305 187.292L512.835 167.677L511.922 170.07L563.393 189.685L564.305 187.292Z" fill="#3F3D56"/>
<path d="M560.655 196.865L509.184 177.25L508.272 179.643L559.742 199.259L560.655 196.865Z" fill="#3F3D56"/>
<path d="M557.005 206.439L505.534 186.823L504.621 189.217L556.092 208.832L557.005 206.439Z" fill="#3F3D56"/>
<path d="M553.354 216.012L501.884 196.397L500.971 198.79L552.442 218.405L553.354 216.012Z" fill="#3F3D56"/>
<path d="M549.704 225.585L498.233 205.97L497.321 208.364L548.792 227.979L549.704 225.585Z" fill="#3F3D56"/>
<path d="M546.054 235.159L494.583 215.544L493.671 217.937L545.141 237.552L546.054 235.159Z" fill="#3F3D56"/>
<path d="M542.404 244.732L490.933 225.117L490.02 227.51L541.491 247.125L542.404 244.732Z" fill="#3F3D56"/>
<path d="M538.753 254.306L487.283 234.69L486.37 237.084L537.841 256.699L538.753 254.306Z" fill="#3F3D56"/>
<path d="M569.519 301L436.574 253.264L463.38 178.647L519.522 231.274L596.326 226.384L569.519 301Z" fill="#3F3D56"/>
<path d="M501.969 277.488L435.679 253.686L451.831 208.724L453.149 209.197L437.47 252.841L502.442 276.171L501.969 277.488Z" fill="#3B87CA"/>
<path d="M478.405 229.672L458.969 222.693L456.176 230.466L475.613 237.445L478.405 229.672Z" fill="#3B87CA"/>
<path d="M258.647 449.327L154.595 449.272L155.412 390.872L207.123 414.108L259.464 392.327L258.647 449.327Z" fill="#3F3D56"/>
<path d="M178.092 422.829L162.879 422.616L162.794 428.7L178.007 428.912L178.092 422.829Z" fill="#3B87CA"/>
<path d="M259.811 392.247L207.217 419.053L155.138 392.247V390.701H259.811V392.247Z" fill="#3B87CA"/>
<path d="M562.164 171.207C563.408 167.946 557.095 162.513 548.065 159.072C539.034 155.63 530.706 155.484 529.462 158.744C528.219 162.005 534.532 167.439 543.562 170.88C552.592 174.321 560.921 174.468 562.164 171.207Z" fill="#3B87CA"/>
</g>
<defs>
<clipPath id="clip0">
<rect width="639" height="476" fill="white"/>
</clipPath>
</defs>
</svg>
