<svg width="127" height="127" viewBox="0 0 127 127" fill="none" xmlns="http://www.w3.org/2000/svg">
<g clip-path="url(#clip0)">
<path d="M125.247 77.1126C123.306 77.1126 121.932 76.9266 121.127 76.555C120.321 76.1833 119.506 75.4604 118.68 74.3867L103.377 52.4549L113.166 38.2674C113.992 37.1522 115.117 36.1402 116.542 35.2318C117.967 34.3234 120.311 33.8687 123.574 33.8687V31.7002H106.661V33.8687C108.024 33.8687 109.087 34.2094 109.851 34.8908C110.615 35.5722 110.997 36.3261 110.997 37.1522C110.997 37.4413 110.977 37.7201 110.936 37.9886C110.894 38.2571 110.729 38.5359 110.44 38.825L102.262 50.8442L92.9686 37.1522L92.6898 36.8115L92.411 36.0991C92.411 35.5209 92.8036 35.0046 93.5881 34.5504C94.3727 34.0962 95.4469 33.869 96.8097 33.869V31.7004H77.1081V33.869H78.2233C80.1233 33.869 81.5483 34.0343 82.4982 34.3647C83.4481 34.6951 84.1916 35.2733 84.7286 36.0994L97.863 55.7389L86.4014 72.7146C85.8644 73.5407 84.8834 74.4803 83.4584 75.5336C82.0334 76.5869 79.5449 77.1135 75.9929 77.1135V79.2818H80.0246C79.2093 83.6393 78.0725 86.9247 76.6121 89.1328C74.9187 91.6936 71.0776 92.9739 65.0884 92.9739H55.7951C54.1429 92.9739 53.1827 92.7879 52.9142 92.4162C52.6457 92.0446 52.5116 91.3217 52.5116 90.248V71.5997H58.5212C61.7843 71.5997 63.8698 72.2192 64.7786 73.4584C65.6875 74.6977 66.1417 76.8247 66.1417 79.8397H67.8145V61.2533H66.1417C66.1417 64.2683 65.7597 66.3852 64.9955 67.6036C64.2313 68.8219 62.0734 69.4311 58.5212 69.4311H52.5116V52.4554C52.5116 51.3814 52.6459 50.6585 52.9142 50.2871C53.1824 49.9157 54.1429 49.7295 55.7951 49.7295H64.5308C69.9828 49.7295 73.4832 50.7826 75.0319 52.8892C76.5807 54.9958 77.6443 58.5065 78.2226 63.4215H79.8335L77.6652 47.5612H45.9053L44.8291 32.2583H1.6467L0.531494 48.1186H2.14241C2.72065 42.3775 3.67079 38.6602 4.99233 36.9667C6.31388 35.2733 9.57697 34.4266 14.7811 34.4266H18.5606C19.3866 34.4266 19.8718 34.6744 20.0165 35.1699C20.1611 35.6653 20.2334 36.3264 20.2334 37.1524V73.8298C20.2334 74.9038 19.9339 75.7193 19.3351 76.2769C18.7362 76.8345 16.6605 77.1133 13.1086 77.1133H9.82507V79.2816H36.0939V77.1133H33.8635C30.3115 77.1133 28.2462 76.8345 27.6682 76.2769C27.0902 75.7193 26.8008 74.9035 26.8008 73.8298V37.1524C26.8008 36.3264 26.8421 35.7378 26.9246 35.3868C27.0072 35.0358 27.3169 34.7157 27.8541 34.4263H31.6955C36.8996 34.4263 40.1625 35.273 41.4843 36.9665C42.7621 38.6039 43.6722 42.1392 44.2165 47.5607H38.8203V49.729H40.4312C43.1986 49.729 44.8093 49.9356 45.2637 50.3485C45.7181 50.7614 45.9451 51.6497 45.9451 53.0125V89.6899C45.9451 91.0529 45.7179 91.9409 45.2637 92.3541C44.8095 92.7673 43.1986 92.9736 40.4312 92.9736H38.8203V95.1419H79.2766L81.6748 79.2816H93.5262V77.1133C91.8741 77.1133 90.7279 76.7001 90.0878 75.8741C89.4476 75.048 89.1275 74.3666 89.1275 73.8296C89.1275 73.5405 89.1482 73.2617 89.1894 72.9932C89.2307 72.7247 89.396 72.4459 89.6849 72.1568L99.5358 57.4114L110.44 74.3869C110.44 74.6348 110.533 74.7795 110.719 74.8205L110.997 74.8824C110.997 75.4606 110.615 75.977 109.851 76.4312C109.087 76.8854 108.024 77.1126 106.661 77.1126V79.2808H126.3V77.1126H125.247Z" fill="black"/>
</g>
<defs>
<clipPath id="clip0">
<rect width="125.768" height="125.768" fill="white" transform="translate(0.531616 0.536377)"/>
</clipPath>
</defs>
</svg>
