<svg viewBox="0 0 128 26" fill="none" xmlns="http://www.w3.org/2000/svg">
  <path d="M95.3655 9.2465V25.455H90.144V6.70825L95.3655 9.2465Z" fill="#F37368" />
  <path
    d="M21.4662 22.4452L25.3825 25.8537L41.881 17.26L40.1767 13.1625L21.4662 22.4452ZM90.1438 12.0022L103.415 5.11273L101.167 1.23273L90.144 6.70823V12.0022H90.1438Z"
    fill="#F7A199" />
  <path
    d="M52.7955 7.97751V25.455H47.7915V0.544012L52.7955 7.97726V7.97751ZM21.4662 22.445L25.3825 25.8535L32.9247 6.99801L30.4952 0.543762L21.4662 22.445Z"
    fill="#F37368" />
  <path
    d="M30.495 0.544012H35.6443L45.1808 25.455H39.8868L30.495 0.544012ZM53.557 0.544012L64.544 17.55V25.4548L47.7915 0.543762H53.557V0.544012ZM73.9717 0.544012H79.1568V25.455H73.9717V0.544012ZM90.144 5.11276H82.1665V0.544012H100.768L103.415 5.11276H90.144Z"
    fill="#F04939" />
  <path d="M118.753 15.991V25.455H113.604V15.991" fill="#F7A199" />
  <path d="M122.307 0.544006L113.604 15.991H118.753L127.782 0.544006H122.307Z" fill="#F04939" />
  <path d="M113.604 15.991L104.612 0.544006H110.269L116.324 11.132L113.604 15.991Z" fill="#F37368" />
  <path
    d="M2.1395 3.44477C2.1395 6.88977 4.27875 8.95627 8.5575 10.0443L13.09 11.0958C17.1512 12.0385 19.617 14.3593 19.617 18.1303C19.6533 19.762 19.1095 21.3575 18.1303 22.6628C18.1303 18.8918 16.1722 16.8613 11.4945 15.6283L7.0345 14.6133C3.445 13.815 0.688999 11.893 0.688999 7.79577C0.688999 6.23652 1.1965 4.67727 2.1395 3.44452"
    fill="#F04939" />
  <path d="M64.544 16.281V0.544006H69.548V25.455H64.544V16.281Z" fill="#F37368" />
  <path
    d="M15.3382 17.1875C17.26 18.4205 18.1302 20.161 18.1302 22.663C16.4985 24.7298 13.7065 25.8538 10.4067 25.8538C4.859 25.8538 0.906748 23.098 0.0724983 18.348H5.40275C6.09175 20.5235 7.90475 21.5388 10.3705 21.5388C13.3077 21.575 15.302 19.9795 15.3382 17.1875V17.1875ZM2.1395 3.40852C3.6985 1.37802 6.382 0.14502 9.645 0.14502C15.338 0.14502 18.6015 3.15477 19.4355 7.36102H14.2867C13.7067 5.69302 12.2922 4.38752 9.71775 4.38752C6.92575 4.42377 5.04025 6.01927 4.9315 8.55752C3.063 7.52702 2.06675 5.51152 2.1395 3.40852V3.40852Z"
    fill="#F37368" />
</svg>
