<svg viewBox="0 0 127 127" fill="none" xmlns="http://www.w3.org/2000/svg">
  <g clip-path="url(#clip0)">
    <path
      d="M63.7669 110.131H113.673C116.806 110.131 119.404 108.37 119.404 106.201V96.1513C118.095 97.46 116.027 98.2815 113.673 98.2815H13.8802C11.5456 98.2815 9.45862 97.464 8.12626 96.1513V106.201C8.12626 108.351 10.7045 110.131 13.8802 110.131H63.7669ZM63.7669 117.748H118.484C122.988 117.748 126.651 115.044 126.651 111.75C126.651 111.483 126.612 111.22 126.568 110.972L118.154 21.8262C117.886 19.7392 116.291 18.0807 114.51 17.4047L120.877 92.8774V106.205C120.877 109.192 117.662 111.629 113.65 111.629H13.8802C9.91059 111.629 6.65241 109.172 6.65241 106.205V92.8774L13.0194 17.4047C11.239 18.1003 9.64334 19.7589 9.37608 21.8262L0.961405 110.933C0.901875 111.195 0.874163 111.462 0.87887 111.731C0.87887 115.028 4.52222 117.748 9.02629 117.748H63.7669ZM112.934 16.0723L112.793 14.4137C112.793 14.3116 112.793 14.229 112.773 14.1072L112.734 13.7377C112.408 11.0966 110.238 9.0686 107.063 9.0686H20.4555C17.3034 9.0686 15.1339 11.073 14.8038 13.7142L14.7841 14.1033L14.7645 14.4098L14.5994 16.0684L8.17342 92.8931C8.17342 95.0429 10.732 96.8233 13.8841 96.8233H113.697C116.849 96.8233 119.407 95.0429 119.427 92.8931L112.934 16.0723ZM83.1312 64.8311C81.7399 68.4941 78.5446 71.1155 75.0467 72.6916C71.2383 74.4523 67.0015 75.1283 62.8275 75.1873C58.3922 75.2614 53.9646 74.7875 49.6455 73.7763C47.4563 73.285 45.2043 72.6916 43.137 71.7915C41.274 70.974 39.7609 69.1308 39.8002 67.0438C39.8395 64.9372 41.3566 63.1528 43.302 62.3982C45.3301 61.5807 47.2716 61.9266 49.2603 62.6223C53.675 64.1369 58.3331 64.8166 62.9965 64.6267C65.6377 64.5442 70.2636 63.1332 69.5247 59.0379C69.3596 58.1182 68.6443 56.8487 67.7246 55.988C66.9858 55.2727 65.4726 54.577 64.49 54.3098C62.3205 53.7163 60.0882 53.2879 57.899 52.7966C53.4578 51.8337 51.1036 51.0987 47.1733 48.7013C43.7147 46.6536 42.9562 45.3252 42.4256 42.2124C41.7299 38.1604 43.7147 34.9258 46.9886 32.4693C54.295 26.9238 61.2987 27.1045 69.9374 28.6806C72.0676 29.0893 74.6065 29.4391 76.4655 30.5632C78.2892 31.6676 79.3307 33.9 78.5328 35.9869C77.794 37.952 75.9114 38.239 73.8873 38.0346C71.7178 37.787 70.8178 37.2171 68.7701 36.828C64.4507 36.0498 62.8747 35.3935 58.7204 36.5607C57.0815 37.0324 54.8531 38.6084 55.6902 40.6561C56.3859 42.3775 58.9877 42.9277 60.5401 43.3365C64.7966 44.4841 68.1334 45.7929 72.3702 47.0427C76.3398 48.1904 79.3503 50.3992 81.8264 53.901C84.0391 57.0138 84.5068 61.3096 83.1784 64.8743L83.1312 64.8311Z"
      fill="#6C6C6C" />
  </g>
  <defs>
    <clipPath id="clip0">
      <rect width="125.768" height="125.768" fill="white" transform="translate(0.882935 0.536377)" />
    </clipPath>
  </defs>
</svg>
